<?xml version="1.0" encoding="utf-8"?>
<!-- Generator: Adobe Illustrator 17.0.0, SVG Export Plug-In . SVG Version: 6.00 Build 0)  -->
<!DOCTYPE svg PUBLIC "-//W3C//DTD SVG 1.1//EN" "http://www.w3.org/Graphics/SVG/1.1/DTD/svg11.dtd">
<svg version="1.1" id="Layer_1" xmlns="http://www.w3.org/2000/svg" xmlns:xlink="http://www.w3.org/1999/xlink" x="0px" y="0px"
	 width="122px" height="26px" viewBox="0 0 122 26" style="enable-background:new 0 0 122 26;" xml:space="preserve">
<style type="text/css">
	.st0{fill-rule:evenodd;clip-rule:evenodd;fill:#E64D39;}
	.st1{fill-rule:evenodd;clip-rule:evenodd;fill:#36383A;}
	.st2{fill:#36383A;}
</style>
<g>
	<g>
		<path class="st0" d="M12.616,1.949H0v5.442h8.074C8.76,4.975,10.413,3.028,12.616,1.949z"/>
	</g>
	<g id="Shape_16_copy_6_1_">
		<path class="st1" d="M22.441,1.935l-4.874,0c-4.823,0-8.59,3.857-8.59,8.903v13.551l5.475-0.006V10.838
			c0-1.901,1.478-3.447,3.295-3.447h4.693l2.867-2.721L22.441,1.935z"/>
	</g>
	<path class="st2" d="M37.197,24.081v-9.197c0-2.215-1.046-3.353-2.83-3.353c-1.784,0-2.922,1.138-2.922,3.353v9.197h-4.676V1.626
		h4.676v8.306c1.077-1.384,2.461-2.646,4.829-2.646c3.538,0,5.598,2.338,5.598,6.121v10.674H37.197z"/>
	<path class="st2" d="M44.505,24.081V7.594h4.676v16.488H44.505z"/>
	<path class="st2" d="M62.546,24.081v-9.197c0-2.215-1.046-3.353-2.83-3.353c-1.784,0-2.922,1.138-2.922,3.353v9.197h-4.676V7.594
		h4.676v2.338c1.077-1.384,2.461-2.646,4.829-2.646c3.537,0,5.598,2.338,5.598,6.121v10.674H62.546z"/>
	<path class="st2" d="M80.616,24.081l-4.306-6.737l-1.63,1.723v5.014h-4.675V1.626h4.675v11.966l5.476-5.998h5.598l-6.275,6.49
		l6.491,9.997H80.616z"/>
	<path class="st2" d="M93.677,5.348c-1.077,0-1.692,0.554-1.692,1.784v0.646h3.783v3.814h-3.722v12.489h-4.676V11.592V7.747V6.701
		c0-3.63,1.815-5.291,5.106-5.291c1.476,0,2.461,0.185,3.322,0.462v3.876C95.122,5.502,94.477,5.348,93.677,5.348z"/>
	<path class="st2" d="M108.443,24.081v-2.338c-1.077,1.384-2.461,2.645-4.829,2.645c-3.537,0-5.598-2.337-5.598-6.121V7.594h4.676
		v9.197c0,2.215,1.046,3.353,2.83,3.353s2.922-1.138,2.922-3.353V7.594h4.676v16.488H108.443z"/>
	<path class="st2" d="M115.692,24.081V1.626h4.676v22.455H115.692z"/>
	<circle class="st2" cx="46.843" cy="2.737" r="2.737"/>
</g>
</svg>
